<svg width="165" height="246" viewBox="0 0 165 246" fill="none" xmlns="http://www.w3.org/2000/svg">
<path d="M88.5327 0.801193L26.5327 77.8012H54.5327V205.801L81.5327 181.801V49.8012C103.876 51.6064 114.904 56.8842 130.533 77.8012H149.533L88.5327 0.801193Z" fill="#17625B" stroke="black" stroke-opacity="0.5"/>
<path d="M132.033 101.801C126.029 73.7464 116.485 63.4966 87.5327 55.8012V63.3012C105.614 72.9286 112.846 80.8804 113.533 105.801C117.255 106.832 118.723 105.787 120.533 101.801C120.02 105.81 119.186 107.411 116.033 108.301C121.796 114.847 125.43 116.972 132.033 120.301C132.237 124.574 130.45 126.549 126.033 129.801C128.629 133.644 130.533 132.801 132.033 134.801C133.533 136.801 131.002 139.681 128.033 141.301C128.033 141.301 132.033 141.301 132.033 143.801C132.033 146.301 130.606 147.779 128.033 148.801C133.349 156.756 133.881 159.721 132.033 163.301C132.033 163.301 130.533 167.801 116.033 167.801C101.533 167.801 92.5327 175.801 95.0327 192.801C97.5327 209.801 114.691 227.801 116.033 219.301C117.375 210.801 123.033 181.301 147.533 175.801C172.033 170.301 163.82 156.727 157.533 151.301C157.533 151.301 161.033 148.801 162.033 146.301C163.033 143.801 157.533 141.301 157.533 141.301C157.533 141.301 162.033 136.801 157.533 134.801C153.033 132.801 151.533 128.301 151.533 128.301C151.454 128.04 159.753 120.831 157.533 116.301C155.312 111.772 145.367 112.495 137.033 105.801C140.5 102.747 140.421 100.819 139.533 97.3012C138.527 102.488 136.844 103.401 132.033 101.801Z" fill="#6D1758" stroke="black" stroke-opacity="0.5"/>
<path d="M82.0327 104.801H87.0327V95.8012" stroke="#16615C"/>
<circle cx="87.0327" cy="94.8012" r="1.5" stroke="#18615A"/>
<circle cx="107.533" cy="114.301" r="2" stroke="#18615A"/>
<circle cx="108.533" cy="141.301" r="2" stroke="#18615A"/>
<circle cx="105.533" cy="132.301" r="2" stroke="#18615A"/>
<circle cx="99.5327" cy="125.301" r="2" stroke="#18615A"/>
<circle cx="106.033" cy="105.801" r="1.5" stroke="#18615A"/>
<circle cx="97.0327" cy="98.8012" r="1.5" stroke="#18615A"/>
<circle cx="98.0327" cy="148.801" r="1.5" stroke="#18615A"/>
<circle cx="88.0327" cy="153.801" r="1.5" stroke="#18615A"/>
<path d="M81.5327 109.301H88.5327L95.5327 100.301" stroke="#18615A"/>
<path d="M81.5327 114.301H92.5327L100.033 105.801H104.533" stroke="#18615A"/>
<path d="M81.5327 119.301H95.5327L99.0327 114.801H105.033" stroke="#18615A"/>
<path d="M81.5327 125.301H97.5327" stroke="#18615A"/>
<path d="M81.5327 130.301H93.0327M93.0327 130.301L103.533 132.301M93.0327 130.301L101.033 141.301H106.533" stroke="#18615A"/>
<path d="M81.5327 136.801H89.5327" stroke="#18615A"/>
<path d="M82.0327 140.301H90.0327L97.0327 147.801" stroke="#18615A"/>
<path d="M82.0327 144.801H87.5327L88.0327 152.301" stroke="#18615A"/>
<circle cx="91.0327" cy="136.801" r="1.5" stroke="#18615A"/>
<path d="M85.5733 184.301L16.5327 245.301H60.803L94.5327 214.006C86.6799 204.189 84.246 197.879 85.5733 184.301Z" fill="#6D1758" stroke="black" stroke-opacity="0.5"/>
<path d="M25.0327 176.301C34.9884 207.308 31.0305 221.546 14.0327 243.801L9.03275 239.801C26.9836 214.869 27.3723 201.06 21.0327 176.301C18.4646 165.062 18.5014 159.4 22.0327 150.801C24.9488 139.571 24.8838 134.358 22.0327 126.801C26.0512 133.756 26.4112 138.989 23.5327 150.801C21.0654 162.707 22.3311 167.693 25.0327 176.301Z" fill="#16615C" stroke="black" stroke-opacity="0.5"/>
<path d="M19.5327 114.301C22.0327 118.301 21.8432 120.544 22.0327 124.801C18.4482 118.649 16.6446 116.946 13.5327 114.801C16.9991 118.92 18.8596 121.228 20.0327 125.301C14.4312 123.778 9.64059 121.558 8.03272 115.801C7.29735 113.168 7.33795 111.361 8.03272 108.801C13.5311 109.071 17.0327 110.301 19.5327 114.301Z" fill="#17625B" stroke="black" stroke-opacity="0.5"/>
<path d="M30.5327 133.801C26.5198 138.828 26.6249 143.083 27.0327 143.301C29.0191 140.1 31.77 138.516 37.5327 135.801C32.1444 140.613 30.3057 142.792 29.0327 145.801C29.0327 145.801 33.5328 146.801 37.5327 144.801C41.5327 142.801 45.5327 129.801 45.5327 129.801C45.5327 129.801 34.5457 128.774 30.5327 133.801Z" fill="#16615C" stroke="black" stroke-opacity="0.5"/>
<path d="M15.5327 143.801C20.0327 148.301 18.5327 156.301 18.5327 156.301C16.8236 152.482 14.8507 149.219 9.53275 146.301C13.2334 150.585 14.9402 153.179 17.0327 158.301C17.0327 158.301 8.03275 156.801 5.03275 152.301C2.03275 147.801 2.03275 137.801 2.03275 137.801C2.03275 137.801 11.0327 139.301 15.5327 143.801Z" fill="#17625B" stroke="black" stroke-opacity="0.5"/>
<path d="M26.0327 164.801C24.0327 171.301 27.0327 175.301 27.0327 175.301C28.9067 168.765 31.0477 165.967 36.5327 162.301C30.9042 169.641 28.7809 173.467 28.5327 179.301C28.5327 179.301 36.0327 177.801 40.0327 172.301C44.0327 166.801 45.0327 151.801 45.0327 151.801C45.0327 151.801 28.0327 158.301 26.0327 164.801Z" fill="#16615C"/>
<path d="M17.0327 181.301C25.0327 186.801 22.0327 196.301 22.0327 196.301C17.8744 188.668 15.2964 186.863 10.5327 185.301C17.0084 189.997 19.375 193.864 22.5327 201.801C22.5327 201.801 11.5327 201.801 6.53275 196.301C1.53275 190.801 0.532745 176.801 0.532745 176.801C0.532745 176.801 9.03275 175.801 17.0327 181.301Z" fill="#16615C"/>
<path d="M26.0327 164.801C24.0327 171.301 27.0327 175.301 27.0327 175.301C28.9067 168.765 31.0477 165.967 36.5327 162.301C30.9042 169.641 28.7809 173.467 28.5327 179.301C28.5327 179.301 36.0327 177.801 40.0327 172.301C44.0327 166.801 45.0327 151.801 45.0327 151.801C45.0327 151.801 28.0327 158.301 26.0327 164.801Z" stroke="black" stroke-opacity="0.5"/>
<path d="M17.0327 181.301C25.0327 186.801 22.0327 196.301 22.0327 196.301C17.8744 188.668 15.2964 186.863 10.5327 185.301C17.0084 189.997 19.375 193.864 22.5327 201.801C22.5327 201.801 11.5327 201.801 6.53275 196.301C1.53275 190.801 0.532745 176.801 0.532745 176.801C0.532745 176.801 9.03275 175.801 17.0327 181.301Z" stroke="black" stroke-opacity="0.5"/>
</svg>
